<?xml version="1.0" encoding="UTF-8" standalone="no"?>
<svg
   xmlns:dc="http://purl.org/dc/elements/1.1/"
   xmlns:cc="http://creativecommons.org/ns#"
   xmlns:rdf="http://www.w3.org/1999/02/22-rdf-syntax-ns#"
   xmlns:svg="http://www.w3.org/2000/svg"
   xmlns="http://www.w3.org/2000/svg"
   xmlns:sodipodi="http://sodipodi.sourceforge.net/DTD/sodipodi-0.dtd"
   xmlns:inkscape="http://www.inkscape.org/namespaces/inkscape"
   width="595.08667"
   height="368.14386"
   id="svg2"
   version="1.1"
   inkscape:version="1.0.2 (e86c870879, 2021-01-15)"
   sodipodi:docname="grbl-esp32.svg"
   viewBox="0 0 557.89373 345.13487">
  <metadata
     id="metadata97">
    <rdf:RDF>
      <cc:Work
         rdf:about="">
        <dc:format>image/svg+xml</dc:format>
        <dc:type
           rdf:resource="http://purl.org/dc/dcmitype/StillImage" />
        <dc:title />
      </cc:Work>
    </rdf:RDF>
  </metadata>
  <sodipodi:namedview
     pagecolor="#ffffff"
     bordercolor="#666666"
     borderopacity="1"
     objecttolerance="10"
     gridtolerance="10"
     guidetolerance="10"
     inkscape:pageopacity="0"
     inkscape:pageshadow="2"
     inkscape:window-width="2000"
     inkscape:window-height="1016"
     id="namedview95"
     showgrid="false"
     inkscape:zoom="0.89702958"
     inkscape:cx="-68.768637"
     inkscape:cy="441.01494"
     inkscape:window-x="26"
     inkscape:window-y="23"
     inkscape:window-maximized="0"
     inkscape:current-layer="g21"
     inkscape:document-rotation="0" />
  <desc
     id="desc4">/Users/chamnit/Dropbox/documents/OHS/Logo/Grbl.DXF - scale = 58.043118, origin = (0.000000, 0.000000), auto = True</desc>
  <defs
     id="defs6" />
  <g
     inkscape:groupmode="layer"
     inkscape:label="0"
     id="g21"
     transform="translate(-93.481222,-351.39333)">
    <path
       sodipodi:nodetypes="ccscccccc"
       inkscape:connector-curvature="0"
       id="path45"
       style="fill:#000000;fill-opacity:1;stroke:#000000;stroke-width:0.748547;stroke-linecap:round;stroke-opacity:1;fill-rule:evenodd"
       d="M 593.11456,524.0383 V 371.16633 c 0,-10.62801 -8.6157,-19.24369 -19.24369,-19.24369 -10.62801,0 -19.24371,8.61568 -19.24371,19.24369 V 524.0383 c 0,42.51202 34.46279,76.97483 76.97481,76.97483 l 19.2437,-19.2437 -19.2437,-19.24372 c -21.25601,0 -38.48741,-17.23141 -38.48741,-38.48741 z" />
    <path
       sodipodi:nodetypes="ccsccccccc"
       inkscape:connector-curvature="0"
       id="path61"
       style="fill:#000000;fill-opacity:1;stroke:#000000;stroke-width:0.748547;stroke-linecap:round;stroke-opacity:1;fill-rule:evenodd"
       d="m 266.51045,524.0383 v 57.73113 c 0,10.628 8.6157,19.2437 19.2437,19.2437 10.628,0 19.2437,-8.6157 19.2437,-19.2437 V 524.0383 c 0,-21.256 17.2314,-38.4874 38.4874,-38.4874 h 29.13497 v -38.4874 h -29.13497 c -42.512,0 -76.97479,34.46279 -76.9748,76.9748" />
    <path
       sodipodi:nodetypes="ccccssscccccsssc"
       inkscape:connector-curvature="0"
       id="path73"
       style="fill:#000000;fill-opacity:1;stroke:#000000;stroke-width:0.748547;stroke-linecap:round;stroke-opacity:1;fill-rule:evenodd"
       d="M 458.94747,447.0635 H 429.8125 v 38.4874 h 29.13497 c 15.56669,0 29.60069,9.3772 35.55746,23.75869 5.95677,14.38145 2.66312,30.93477 -8.34413,41.94203 -11.00727,11.00726 -27.56059,14.30091 -41.94204,8.34414 -14.38149,-5.95677 -23.75869,-19.99077 -23.75869,-35.55746 V 371.16633 l -19.24371,-19.2437 -19.2437,19.2437 V 524.0383 c 0,31.13337 18.75441,59.20133 47.51738,71.11493 28.76291,11.9135 61.86955,5.3263 83.88408,-16.6883 22.01452,-22.0145 28.6018,-55.12114 16.68828,-83.88405 -11.91356,-28.76296 -39.98155,-47.51738 -71.11493,-47.51738" />
    <path
       sodipodi:nodetypes="cssscccscccsssccccc"
       inkscape:connector-curvature="0"
       id="path81"
       style="fill:#000000;fill-opacity:1;stroke:#000000;stroke-width:0.748547;stroke-linecap:round;stroke-opacity:1;fill-rule:evenodd"
       d="m 170.83076,562.52571 c -15.56668,0 -29.60068,-9.37721 -35.55746,-23.75869 -5.95677,-14.38145 -2.66313,-30.93478 8.34413,-41.94203 11.00726,-11.00727 27.56058,-14.30091 41.94204,-8.34415 14.38149,5.95678 23.75869,19.99077 23.75869,35.55746 v 95.14083 c 0,21.256 -17.23139,38.4874 -38.4874,38.4874 -10.62381,0.01 -19.23296,8.6199 -19.23296,19.2437 0,10.6239 8.60915,19.2378 19.23296,19.2437 42.51201,0 76.9748,-34.4628 76.97481,-76.9748 V 524.0383 c 0,-31.13337 -18.75442,-59.20137 -47.51739,-71.11492 -28.76291,-11.91353 -61.86955,-5.32624 -83.88407,16.68828 -22.014526,22.01453 -28.601796,55.12117 -16.688266,83.88408 11.913546,28.76299 39.981546,47.51739 71.114916,47.51739 h 19.2437 l 19.2437,-19.2437 -19.2437,-19.24372 h -19.2437" />
    <g
       aria-label="XXXII"
       transform="scale(1.0549747,0.94789005)"
       id="text854"
       style="font-style:normal;font-variant:normal;font-weight:normal;font-stretch:normal;font-size:94.9475px;line-height:1.25;font-family:Comfortaa;-inkscape-font-specification:'Comfortaa, Normal';font-variant-ligatures:normal;font-variant-caps:normal;font-variant-numeric:normal;font-variant-east-asian:normal;letter-spacing:0px;word-spacing:0px;fill:#000000;fill-opacity:1;stroke:none;stroke-width:0.98904">
      <path
         d="m 307.6362,713.42138 q 0.85453,1.13937 0.85453,2.37369 0,1.51916 -0.94948,2.56358 -0.94947,1.04443 -2.56358,1.04443 -1.89895,0 -2.84842,-1.32927 l -22.69246,-31.42762 -23.16719,31.61752 q -0.94947,1.13937 -2.65853,1.13937 -1.6141,0 -2.56358,-0.94948 -0.94947,-1.04442 -0.94947,-2.46863 0,-1.42422 0.85452,-2.56359 l 23.45204,-31.90236 -21.93288,-30.47815 q -0.75958,-1.23431 -0.75958,-2.27874 0,-1.42421 0.94948,-2.46863 0.94947,-1.04442 2.46863,-1.04442 1.89895,0 2.84843,1.32926 l 21.55308,29.81352 21.83793,-29.81352 q 1.04442,-1.32926 2.84842,-1.32926 1.51916,0 2.46864,1.13937 0.94947,1.04442 0.94947,2.46863 0,1.23432 -0.66463,2.18379 l -22.40761,30.38321 z"
         style="font-style:normal;font-variant:normal;font-weight:normal;font-stretch:normal;font-size:94.9475px;font-family:Comfortaa;-inkscape-font-specification:'Comfortaa, Normal';font-variant-ligatures:normal;font-variant-caps:normal;font-variant-numeric:normal;font-variant-east-asian:normal;stroke-width:0.98904"
         id="path47" />
      <path
         d="m 374.76397,713.42138 q 0.85453,1.13937 0.85453,2.37369 0,1.51916 -0.94948,2.56358 -0.94947,1.04443 -2.56358,1.04443 -1.89895,0 -2.84842,-1.32927 l -22.69246,-31.42762 -23.16719,31.61752 q -0.94947,1.13937 -2.65853,1.13937 -1.61411,0 -2.56358,-0.94948 -0.94948,-1.04442 -0.94948,-2.46863 0,-1.42422 0.85453,-2.56359 l 23.45204,-31.90236 -21.93288,-30.47815 q -0.75958,-1.23431 -0.75958,-2.27874 0,-1.42421 0.94948,-2.46863 0.94947,-1.04442 2.46863,-1.04442 1.89895,0 2.84843,1.32926 l 21.55308,29.81352 21.83793,-29.81352 q 1.04442,-1.32926 2.84842,-1.32926 1.51916,0 2.46864,1.13937 0.94947,1.04442 0.94947,2.46863 0,1.23432 -0.66463,2.18379 l -22.40761,30.38321 z"
         style="font-style:normal;font-variant:normal;font-weight:normal;font-stretch:normal;font-size:94.9475px;font-family:Comfortaa;-inkscape-font-specification:'Comfortaa, Normal';font-variant-ligatures:normal;font-variant-caps:normal;font-variant-numeric:normal;font-variant-east-asian:normal;stroke-width:0.98904"
         id="path49" />
      <path
         d="m 441.89174,713.42138 q 0.85453,1.13937 0.85453,2.37369 0,1.51916 -0.94948,2.56358 -0.94947,1.04443 -2.56358,1.04443 -1.89895,0 -2.84842,-1.32927 l -22.69246,-31.42762 -23.16719,31.61752 q -0.94947,1.13937 -2.65853,1.13937 -1.61411,0 -2.56358,-0.94948 -0.94948,-1.04442 -0.94948,-2.46863 0,-1.42422 0.85453,-2.56359 l 23.45203,-31.90236 -21.93287,-30.47815 q -0.75958,-1.23431 -0.75958,-2.27874 0,-1.42421 0.94948,-2.46863 0.94947,-1.04442 2.46863,-1.04442 1.89895,0 2.84843,1.32926 l 21.55308,29.81352 21.83793,-29.81352 q 1.04442,-1.32926 2.84842,-1.32926 1.51916,0 2.46864,1.13937 0.94947,1.04442 0.94947,2.46863 0,1.23432 -0.66463,2.18379 l -22.40761,30.38321 z"
         style="font-style:normal;font-variant:normal;font-weight:normal;font-stretch:normal;font-size:94.9475px;font-family:Comfortaa;-inkscape-font-specification:'Comfortaa, Normal';font-variant-ligatures:normal;font-variant-caps:normal;font-variant-numeric:normal;font-variant-east-asian:normal;stroke-width:0.98904"
         id="path51" />
      <path
         d="m 460.21649,719.40308 q -1.51916,0 -2.65853,-1.04443 -1.04443,-1.13937 -1.04443,-2.65853 v -66.74809 q 0,-1.61411 1.04443,-2.65853 1.13937,-1.04442 2.65853,-1.04442 1.6141,0 2.65853,1.04442 1.04442,1.04442 1.04442,2.65853 v 66.74809 q 0,1.51916 -1.04442,2.65853 -1.04443,1.04443 -2.65853,1.04443 z"
         style="font-style:normal;font-variant:normal;font-weight:normal;font-stretch:normal;font-size:94.9475px;font-family:Comfortaa;-inkscape-font-specification:'Comfortaa, Normal';font-variant-ligatures:normal;font-variant-caps:normal;font-variant-numeric:normal;font-variant-east-asian:normal;stroke-width:0.98904"
         id="path53" />
      <path
         d="m 486.61189,719.40308 q -1.51916,0 -2.65853,-1.04443 -1.04443,-1.13937 -1.04443,-2.65853 v -66.74809 q 0,-1.61411 1.04443,-2.65853 1.13937,-1.04442 2.65853,-1.04442 1.6141,0 2.65853,1.04442 1.04442,1.04442 1.04442,2.65853 v 66.74809 q 0,1.51916 -1.04442,2.65853 -1.04443,1.04443 -2.65853,1.04443 z"
         style="font-style:normal;font-variant:normal;font-weight:normal;font-stretch:normal;font-size:94.9475px;font-family:Comfortaa;-inkscape-font-specification:'Comfortaa, Normal';font-variant-ligatures:normal;font-variant-caps:normal;font-variant-numeric:normal;font-variant-east-asian:normal;stroke-width:0.98904"
         id="path55" />
    </g>
    <g
       aria-label="ESP"
       transform="matrix(1.1080841,0,0,0.9024586,-5.8283533,-2.8867525)"
       id="text854-0"
       style="font-style:normal;font-variant:normal;font-weight:normal;font-stretch:normal;font-size:112.578px;line-height:1.25;font-family:Comfortaa;-inkscape-font-specification:'Comfortaa, Normal';font-variant-ligatures:normal;font-variant-caps:normal;font-variant-numeric:normal;font-variant-east-asian:normal;letter-spacing:0px;word-spacing:0px;fill:#000000;fill-opacity:1;stroke:none;stroke-width:1.1727">
      <path
         d="m 100.04567,481.74701 q -1.801252,0 -3.152188,-1.23836 -1.238358,-1.35093 -1.238358,-3.15218 v -79.14234 q 0,-1.91382 1.238358,-3.15218 1.350936,-1.23836 3.152188,-1.23836 h 52.79908 q 1.91383,0 3.15218,1.23836 1.23836,1.23836 1.23836,3.0396 0,1.80125 -1.23836,3.03961 -1.23835,1.12578 -3.15218,1.12578 h -48.40854 v 31.07153 h 35.23691 q 1.91383,0 3.15219,1.23836 1.23836,1.23835 1.23836,3.0396 0,1.80125 -1.35094,3.03961 -1.23836,1.23836 -3.03961,1.23836 h -35.23691 v 31.40926 h 48.40854 q 1.91383,0 3.15218,1.23836 1.23836,1.12578 1.23836,2.92703 0,1.80124 -1.23836,3.0396 -1.23835,1.23836 -3.15218,1.23836 z"
         style="stroke-width:1.1727"
         id="path40" />
      <path
         d="m 200.57776,482.87279 q -10.69491,0 -19.02568,-4.50312 -8.2182,-4.6157 -11.82069,-12.38358 -0.45031,-0.78805 -0.45031,-1.80125 0,-1.57609 1.12578,-2.58929 1.23835,-1.12578 3.26476,-1.12578 1.35093,0 2.47671,0.78804 1.23836,0.67547 1.80125,2.02641 2.5893,5.06601 8.55593,8.21819 6.07921,3.03961 14.07225,3.03961 9.2314,0 14.8603,-4.39055 5.6289,-4.50312 5.6289,-12.49615 0,-7.09242 -5.29117,-11.93327 -5.17859,-4.84086 -15.64834,-6.19179 -13.05905,-1.57609 -20.60178,-8.10562 -7.43014,-6.6421 -7.43014,-16.21123 0,-6.75468 3.60249,-11.82069 3.71508,-5.17859 10.13202,-7.88046 6.52953,-2.81445 14.74772,-2.81445 8.89366,0 15.64834,3.94023 6.75468,3.94023 10.58233,10.2446 0.78805,1.23836 0.78805,2.70187 0,2.13898 -2.0264,3.37734 -0.90063,0.45031 -2.02641,0.45031 -1.23836,0 -2.36414,-0.56289 -1.0132,-0.67547 -1.68867,-1.80125 -6.30436,-9.90686 -19.02568,-10.01944 -9.11882,0 -14.40998,3.82765 -5.29117,3.82766 -5.29117,10.92007 0,13.17163 21.27724,15.98608 13.95968,2.0264 20.82693,8.55592 6.86726,6.52953 6.86726,17.22444 0,7.88046 -3.82765,13.62194 -3.82765,5.74148 -10.46975,8.78108 -6.64211,2.92703 -14.8603,2.92703 z"
         style="stroke-width:1.1727"
         id="path42" />
      <path
         d="m 252.47609,481.74701 q -1.91383,0 -3.15219,-1.23836 -1.23836,-1.23836 -1.23836,-3.15218 v -79.14234 q 0,-1.91382 1.23836,-3.15218 1.23836,-1.23836 3.15219,-1.23836 h 22.5156 q 8.21819,0 14.63514,3.71507 6.52952,3.6025 10.13202,10.13202 3.60249,6.41695 3.60249,14.74772 0,8.2182 -3.60249,14.63514 -3.6025,6.41695 -10.13202,10.01944 -6.41695,3.6025 -14.63514,3.6025 h -18.12506 v 26.68099 q 0,1.91382 -1.23836,3.15218 -1.23836,1.23836 -3.15218,1.23836 z m 22.5156,-39.51488 q 5.74147,0 10.24459,-2.47672 4.50312,-2.58929 6.97984,-7.09241 2.5893,-4.50312 2.5893,-10.2446 0,-5.85405 -2.5893,-10.35717 -2.47672,-4.6157 -6.97984,-7.205 -4.50312,-2.58929 -10.24459,-2.58929 h -18.12506 v 39.96519 z"
         style="stroke-width:1.1727"
         id="path44" />
    </g>
    <path
       id="XMLID_57_"
       style="fill:#000000;fill-opacity:1;stroke:#000000;stroke-width:1.17762;stroke-opacity:1"
       d="m 593.8126,688.43039 c -12.83606,0 -24.84776,-4.94599 -33.79766,-14.01367 -9.06764,-9.06768 -14.01364,-21.07938 -14.01364,-33.79766 0,-12.83602 4.946,-24.84772 14.01364,-33.79762 0.70657,-0.70657 1.88419,-0.70657 2.59076,0 0.70657,0.70657 0.70657,1.88419 0,2.59076 -8.36107,8.36107 -12.9538,19.43068 -12.9538,31.32464 0,11.77618 4.59273,22.96354 12.9538,31.32464 8.36111,8.36111 19.43072,12.9538 31.32464,12.9538 11.77618,0 22.96357,-4.59269 31.32468,-12.9538 0.70657,-0.70657 1.88419,-0.70657 2.59076,0 0.70657,0.70657 0.70657,1.88419 0,2.59076 -9.3032,8.83216 -21.31491,13.77815 -34.03318,13.77815 m -0.47105,-17.311 c 0.9421,-10.00977 -3.41511,-19.31294 -10.95187,-24.96551 -3.88612,-2.94406 -8.71437,-4.94599 -14.01363,-5.53482 -1.41314,-0.11764 -2.35524,-1.41314 -2.2375,-2.7085 0.11764,-1.2954 1.17762,-2.2375 2.47302,-2.2375 0.11764,0 0.23563,0 0.35327,0 5.65257,0.58883 10.95186,2.59076 15.30903,5.65257 9.53873,6.59466 15.30904,17.8998 14.01368,30.2648 -0.23563,2.00197 -0.58883,3.76838 -1.05988,5.65257 l 7.30124,2.00197 c 2.11971,-0.58883 4.23942,-1.41314 6.24139,-2.35524 0.47105,-2.82628 0.82431,-5.65256 0.82431,-8.59663 0,-22.96357 -17.07544,-42.15872 -39.09692,-45.45605 -2.7085,-0.35327 -5.29926,-0.35327 -7.30123,0.11763 -6.83018,1.76645 -11.77618,7.89006 -11.77618,15.19129 0,6.94793 4.59273,12.9538 10.95187,14.95574 1.17761,0.35326 3.0618,0.58882 3.88612,0.70657 v 0 c 6.94796,1.17762 12.24723,7.18349 12.24723,14.48472 0,2.94406 -0.82432,5.65256 -2.35524,7.89006 l 5.06378,3.17955 c 2.47298,0.58882 4.94599,1.05987 7.53675,1.2954 1.17762,-2.82629 2.23746,-6.12362 2.59076,-9.53873 m 40.27454,-30.50033 c 0,-22.25696 -18.01754,-40.27453 -40.27454,-40.27453 -1.41314,0 -2.82628,0.11763 -4.12168,0.23562 l -0.94209,2.59076 c 19.78398,6.94797 35.44632,22.61027 42.39428,42.39426 l 2.70851,-0.9421 c 0.11763,-1.29536 0.23563,-2.59076 0.23563,-4.0039 m -4.71048,18.84189 c -4.0039,-28.14505 -26.2609,-50.40205 -54.40595,-54.40596 -3.29733,1.76645 -6.35914,3.88616 -8.9499,6.47692 v 6.00584 c 28.02731,0 50.8731,22.84579 50.8731,50.8731 h 6.00587 c 2.59076,-2.70851 4.82822,-5.65257 6.47688,-8.9499 m -53.93491,6.35914 c 0,3.41511 -2.82628,6.24139 -6.24139,6.24139 -3.41507,0 -6.24136,-2.82628 -6.24136,-6.24139 0,-3.41508 2.82629,-6.24136 6.24136,-6.24136 3.41511,0.11764 6.24139,2.82628 6.24139,6.24136" />
  </g>
  <style
     type="text/css"
     id="style1159">
	.st0{fill:#FF3034;}
	.st1{fill:#FFFEFE;}
	.st2{fill:#FFFFFF;}
</style>
</svg>
